<svg width="147" height="206" viewBox="0 0 147 206" fill="none" xmlns="http://www.w3.org/2000/svg">
<path d="M54.1116 61.7867L0.49987 1C2.68811 9.37368 5.4234 20.8487 17.4587 35.7352C29.494 50.6218 45.0851 57.7549 54.1116 61.7867Z" fill="#3C652F"/>
<path d="M0.5 0.999939L54.1117 61.7866C51.9235 53.4129 49.1882 41.9379 37.1529 27.0514C25.1176 12.1648 9.52646 5.03171 0.5 0.999939Z" fill="#3C652F"/>
<path d="M53.9751 61.6316C46.8178 49.4846 26.6495 20.8487 1.04722 1.62024" stroke="#2A501E" stroke-width="2" stroke-linecap="round"/>
<path d="M55.4795 60.7664L55.4795 66.5927C55.4795 76.0633 59.6549 84.7762 69.1747 84.7762C81.0661 84.7762 74.1263 84.7762 76.9656 84.7762C86.9865 84.7762 93.5 88.3751 93.5 103.528C93.5 122.469 93.5 164.329 93.5 206" stroke="#638A4E" stroke-width="2"/>
<path d="M131.306 77.3686C124.741 68.3325 112.094 66.3293 103.058 72.8944C94.0214 79.4595 92.0183 92.1068 98.5834 101.143C105.149 110.179 117.095 107.034 121.451 98.2112C131.289 96.721 137.871 86.4047 131.306 77.3686Z" fill="#742FAB"/>
<path d="M92.5696 58.2134C91.2091 59.2018 94.6478 88.9633 94.6478 88.9633L120.864 69.9158C120.864 69.9158 93.93 57.225 92.5696 58.2134Z" fill="#742FAB"/>
<path d="M89.1824 100.973C95.7475 91.9373 93.7444 79.2901 84.7083 72.7249C75.6722 66.1598 63.0249 68.163 56.4598 77.1991C49.8947 86.2352 56.5776 96.6248 66.3146 98.0417C70.772 106.938 82.6173 110.01 89.1824 100.973Z" fill="#742FAB"/>
<path d="M95.4299 58.2136C94.0695 57.2252 66.8272 69.6923 66.8272 69.6923L93.0438 88.7398C93.0438 88.7398 96.7904 59.202 95.4299 58.2136Z" fill="#742FAB"/>
<path d="M53.7162 68.2068C64.3388 71.6583 75.7481 65.845 79.1996 55.2224C82.651 44.5999 76.8377 33.1906 66.2151 29.7391C55.5926 26.2876 47.7766 35.854 49.4379 45.5523C42.3546 52.5406 43.0937 64.7554 53.7162 68.2068Z" fill="#742FAB"/>
<path d="M96.3138 60.9349C96.8335 59.3357 76.5582 37.2793 76.5582 37.2793L66.5443 68.0987C66.5443 68.0987 95.7942 62.5342 96.3138 60.9349Z" fill="#742FAB"/>
<path d="M73.9203 24.3511C73.9203 35.5204 82.9748 44.5748 94.144 44.5748C105.313 44.5748 114.368 35.5204 114.368 24.3511C114.368 13.1819 102.854 8.70467 94.144 13.2816C85.3089 8.7045 73.9203 13.1819 73.9203 24.3511Z" fill="#742FAB"/>
<path d="M93.9998 62.6167C95.6814 62.6167 110.393 36.5179 110.393 36.5179L77.9873 36.5179C77.9873 36.5179 92.3182 62.6167 93.9998 62.6167Z" fill="#742FAB"/>
<path d="M121.874 30.0132C111.251 33.4647 105.438 44.874 108.889 55.4965C112.341 66.1191 123.75 71.9324 134.373 68.4809C144.995 65.0295 145.696 52.696 138.651 45.8264C140.274 36.0093 132.496 26.5617 121.874 30.0132Z" fill="#742FAB"/>
<path d="M91.6859 60.9344C92.2056 62.5337 121.573 68.4602 121.573 68.4602L111.559 37.6407C111.559 37.6407 91.1663 59.3352 91.6859 60.9344Z" fill="#742FAB"/>
<path d="M91.5238 46.2298C91.8738 43.531 95.7809 43.531 96.131 46.2298C96.3829 48.1718 98.7773 48.9498 100.123 47.5267C101.992 45.5491 105.153 47.8457 103.85 50.2348C102.912 51.954 104.392 53.9909 106.317 53.6303C108.992 53.1293 110.199 56.8451 107.741 58.0121C105.972 58.8518 105.972 61.3694 107.741 62.2091C110.199 63.376 108.992 67.0919 106.317 66.5909C104.392 66.2303 102.912 68.2671 103.85 69.9864C105.153 72.3755 101.992 74.672 100.123 72.6944C98.7773 71.2713 96.3829 72.0493 96.131 73.9914C95.7809 76.6902 91.8738 76.6902 91.5238 73.9914C91.2719 72.0493 88.8774 71.2713 87.5321 72.6944C85.6626 74.672 82.5017 72.3755 83.8048 69.9864C84.7425 68.2671 83.2627 66.2303 81.3378 66.5909C78.6629 67.0919 77.4556 63.376 79.9141 62.2091C81.6833 61.3694 81.6833 58.8518 79.9141 58.0121C77.4556 56.8451 78.6629 53.1293 81.3378 53.6303C83.2627 53.9909 84.7425 51.954 83.8048 50.2348C82.5017 47.8457 85.6626 45.5491 87.5321 47.5267C88.8774 48.9498 91.2719 48.1718 91.5238 46.2298Z" fill="#EED2F8" stroke="#824E8A" stroke-width="1.21692"/>
</svg>
