<svg width="104" height="205" viewBox="0 0 104 205" fill="none" xmlns="http://www.w3.org/2000/svg">
<ellipse cx="9.7905" cy="9.79329" rx="9.7905" ry="9.79329" transform="matrix(-0.776246 -0.63043 0.776246 -0.63043 62.2886 85.063)" fill="#74AA63"/>
<path d="M73.389 63.7034L72.9706 73.9617L60.7929 64.0716L73.389 63.7034Z" fill="#74AA63"/>
<path d="M73.046 63.9794C67.2386 66.3376 55.6238 72.713 55.6238 79.3487" stroke="#638A4E" stroke-width="2"/>
<path d="M51.9316 70.314V94.0347C51.9316 101.541 56.5519 108.447 67.0861 108.447C80.2445 108.447 74.4808 108.447 75.8428 108.447C84.9231 108.447 86.8749 112.349 86.8749 119.969C86.8749 134.983 86.8749 171.502 86.8749 204.531" stroke="#638A4E" stroke-width="2"/>
<ellipse cx="9.7905" cy="9.79329" rx="9.7905" ry="9.79329" transform="matrix(0.776246 -0.63043 -0.776246 -0.63043 41.575 100.304)" fill="#74AA63"/>
<path d="M30.4748 78.9443L30.8932 89.2026L43.0708 79.3125L30.4748 78.9443Z" fill="#74AA63"/>
<path d="M30.8173 79.22C36.6247 81.5782 48.2395 87.9536 48.2395 94.5893" stroke="#638A4E" stroke-width="2"/>
<path fill-rule="evenodd" clip-rule="evenodd" d="M32.0714 65.056C30.4489 65.5021 28.9405 66.4286 27.777 67.8152C24.7282 71.4486 25.2021 76.8657 28.8356 79.9145C32.469 82.9634 37.8861 82.4894 40.935 78.856C42.0982 77.4696 42.7487 75.8236 42.9064 74.1486C44.1959 67.704 49.6146 56.7099 49.6146 56.7099L48.0796 55.4218C48.0796 55.4218 38.1943 62.6667 32.0714 65.056Z" fill="#EB5A35"/>
<path fill-rule="evenodd" clip-rule="evenodd" d="M28.7313 46.9171C27.2684 46.085 25.5465 45.6734 23.7431 45.8312C19.018 46.2446 15.5227 50.4102 15.9361 55.1352C16.3494 59.8603 20.515 63.3557 25.2401 62.9423C27.0428 62.7846 28.6664 62.0807 29.9624 61.0081C35.431 57.3627 47.0372 53.4202 47.0372 53.4202L46.8626 51.4239C46.8626 51.4239 34.7505 49.557 28.7313 46.9171Z" fill="#EB5A35"/>
<path fill-rule="evenodd" clip-rule="evenodd" d="M39.1954 31.729C38.7494 30.1061 37.8228 28.5974 36.4359 27.4336C32.8025 24.3848 27.3854 24.8587 24.3366 28.4922C21.2877 32.1257 21.7617 37.5427 25.3951 40.5916C26.7812 41.7546 28.4268 42.405 30.1014 42.563C36.5459 43.8521 47.5411 49.2713 47.5411 49.2713L48.8293 47.7363C48.8293 47.7363 41.5851 37.852 39.1954 31.729Z" fill="#EB5A35"/>
<path fill-rule="evenodd" clip-rule="evenodd" d="M57.3344 28.3879C58.1664 26.925 58.5779 25.2032 58.4202 23.3998C58.0068 18.6747 53.8412 15.1794 49.1161 15.5928C44.391 16.0062 40.8957 20.1718 41.3091 24.8969C41.4668 26.6994 42.1705 28.323 43.2431 29.6189C46.8885 35.0875 50.8312 46.694 50.8312 46.694L52.8275 46.5194C52.8275 46.5194 54.6944 34.407 57.3344 28.3879Z" fill="#EB5A35"/>
<path fill-rule="evenodd" clip-rule="evenodd" d="M72.5236 38.8516C74.1461 38.4055 75.6545 37.479 76.8179 36.0924C79.8668 32.459 79.3928 27.0419 75.7594 23.9931C72.1259 20.9442 66.7088 21.4182 63.66 25.0516C62.4967 26.438 61.8463 28.0839 61.6885 29.759C60.3991 36.2036 54.9803 47.1977 54.9803 47.1977L56.5154 48.4858C56.5154 48.4858 66.4007 41.2409 72.5236 38.8516Z" fill="#EB5A35"/>
<path fill-rule="evenodd" clip-rule="evenodd" d="M75.8637 56.9905C77.3266 57.8226 79.0485 58.2342 80.8519 58.0764C85.577 57.663 89.0723 53.4974 88.6589 48.7723C88.2455 44.0472 84.08 40.5519 79.3549 40.9653C77.5522 41.123 75.9285 41.8269 74.6326 42.8995C69.1639 46.5448 57.5578 50.4874 57.5578 50.4874L57.7324 52.4837C57.7324 52.4837 69.8445 54.3506 75.8637 56.9905Z" fill="#EB5A35"/>
<path fill-rule="evenodd" clip-rule="evenodd" d="M65.3996 72.1786C65.8456 73.8015 66.7722 75.3102 68.159 76.4739C71.7925 79.5228 77.2096 79.0488 80.2584 75.4154C83.3072 71.7819 82.8333 66.3649 79.1998 63.316C77.8138 62.153 76.1682 61.5026 74.4935 61.3446C68.049 60.0555 57.0538 54.6363 57.0538 54.6363L55.7657 56.1713C55.7657 56.1713 63.0099 66.0556 65.3996 72.1786Z" fill="#EB5A35"/>
<path fill-rule="evenodd" clip-rule="evenodd" d="M47.2601 75.5201C46.4281 76.983 46.0166 78.7048 46.1743 80.5081C46.5877 85.2332 50.7533 88.7286 55.4784 88.3152C60.2035 87.9018 63.6988 83.7362 63.2854 79.0111C63.1277 77.2085 62.4239 75.5849 61.3513 74.289C57.706 68.8204 53.7633 57.214 53.7633 57.214L51.767 57.3886C51.767 57.3886 49.9001 69.501 47.2601 75.5201Z" fill="#EB5A35"/>
<path d="M57.9473 55.8037C58.5441 56.3951 57.7563 57.3339 57.0703 56.8489C56.5086 56.4518 55.7777 57.0384 56.0438 57.6727C56.3689 58.4475 55.2818 59.0134 54.8336 58.3027C54.4666 57.7209 53.5669 57.9831 53.5701 58.671C53.5739 59.5112 52.353 59.618 52.2108 58.7899C52.0944 58.1119 51.1629 58.0099 50.9025 58.6467C50.5845 59.4243 49.4157 59.0558 49.6013 58.2364C49.7532 57.5654 48.9316 57.1147 48.4474 57.6033C47.856 58.2001 46.9172 57.4123 47.4022 56.7263C47.7993 56.1646 47.2127 55.4337 46.5784 55.6999C45.8036 56.0249 45.2377 54.9378 45.9484 54.4896C46.5302 54.1226 46.268 53.223 45.5801 53.2261C44.7399 53.2299 44.6331 52.009 45.4612 51.8668C46.1391 51.7505 46.2412 50.8189 45.6044 50.5585C44.8268 50.2405 45.1953 49.0717 46.0147 49.2573C46.6856 49.4092 47.1364 48.5876 46.6478 48.1034C46.051 47.512 46.8388 46.5732 47.5248 47.0582C48.0865 47.4553 48.8173 46.8687 48.5512 46.2344C48.2262 45.4596 49.3133 44.8937 49.7615 45.6044C50.1285 46.1862 51.0281 45.924 51.025 45.2361C51.0212 44.3959 52.2421 44.2891 52.3842 45.1172C52.5006 45.7952 53.4322 45.8972 53.6925 45.2604C54.0105 44.4828 55.1794 44.8513 54.9938 45.6707C54.8419 46.3417 55.6635 46.7924 56.1477 46.3038C56.7391 45.707 57.6779 46.4948 57.1929 47.1808C56.7958 47.7425 57.3823 48.4734 58.0167 48.2072C58.7915 47.8822 59.3573 48.9693 58.6467 49.4175C58.0649 49.7845 58.3271 50.6841 59.015 50.681C59.8552 50.6772 59.962 51.8981 59.1339 52.0403C58.4559 52.1566 58.3539 53.0882 58.9906 53.3486C59.7683 53.6666 59.3998 54.8354 58.5803 54.6498C57.9094 54.4979 57.4587 55.3195 57.9473 55.8037Z" fill="#F4B442"/>
<path d="M53.2798 63.1829L52.2974 51.9537" stroke="#DC8433" stroke-width="0.536764"/>
<circle cx="53.2797" cy="63.1829" r="1.61029" transform="rotate(175 53.2797 63.1829)" fill="#F4B442"/>
<path d="M48.908 62.7039L52.2975 51.9535" stroke="#DC8433" stroke-width="0.536764"/>
<circle cx="48.9077" cy="62.7041" r="1.61029" transform="rotate(-162.5 48.9077 62.7041)" fill="#F4B442"/>
<path d="M45.052 60.5886L52.2975 51.9537" stroke="#DC8433" stroke-width="0.536764"/>
<circle cx="45.052" cy="60.5885" r="1.61029" transform="rotate(-140 45.052 60.5885)" fill="#F4B442"/>
<path d="M42.2991 57.1584L52.2975 51.9536" stroke="#DC8433" stroke-width="0.536764"/>
<circle cx="42.2991" cy="57.1585" r="1.61029" transform="rotate(-117.5 42.2991 57.1585)" fill="#F4B442"/>
<path d="M41.0681 52.9363L52.2973 51.9539" stroke="#DC8433" stroke-width="0.536764"/>
<circle cx="41.0683" cy="52.936" r="1.61029" transform="rotate(-95 41.0683 52.936)" fill="#F4B442"/>
<path d="M41.5471 48.564L52.2975 51.9535" stroke="#DC8433" stroke-width="0.536764"/>
<circle cx="41.5471" cy="48.5642" r="1.61029" transform="rotate(-72.5 41.5471 48.5642)" fill="#F4B442"/>
<path d="M43.6624 44.7081L52.2972 51.9537" stroke="#DC8433" stroke-width="0.536764"/>
<circle cx="43.6624" cy="44.7081" r="1.61029" transform="rotate(-50 43.6624 44.7081)" fill="#F4B442"/>
<path d="M47.0925 41.9552L52.2974 51.9536" stroke="#DC8433" stroke-width="0.536764"/>
<circle cx="47.0923" cy="41.9554" r="1.61029" transform="rotate(-27.5 47.0923 41.9554)" fill="#F4B442"/>
<path d="M51.3147 40.7249L52.2971 51.954" stroke="#DC8433" stroke-width="0.536764"/>
<circle cx="51.3148" cy="40.7248" r="1.61029" transform="rotate(-5 51.3148 40.7248)" fill="#F4B442"/>
<path d="M55.6865 41.2039L52.297 51.9542" stroke="#DC8433" stroke-width="0.536764"/>
<circle cx="55.6868" cy="41.2036" r="1.61029" transform="rotate(17.5 55.6868 41.2036)" fill="#F4B442"/>
<path d="M59.543 43.3188L52.2974 51.9537" stroke="#DC8433" stroke-width="0.536764"/>
<circle cx="59.543" cy="43.3188" r="1.61029" transform="rotate(40 59.543 43.3188)" fill="#F4B442"/>
<path d="M62.2957 46.7493L52.2972 51.9541" stroke="#DC8433" stroke-width="0.536764"/>
<circle cx="62.2957" cy="46.7492" r="1.61029" transform="rotate(62.5 62.2957 46.7492)" fill="#F4B442"/>
<path d="M63.5264 50.9714L52.2972 51.9539" stroke="#DC8433" stroke-width="0.536764"/>
<circle cx="63.5262" cy="50.9717" r="1.61029" transform="rotate(85 63.5262 50.9717)" fill="#F4B442"/>
<path d="M63.0474 55.3438L52.297 51.9542" stroke="#DC8433" stroke-width="0.536764"/>
<circle cx="63.0471" cy="55.344" r="1.61029" transform="rotate(107.5 63.0471 55.344)" fill="#F4B442"/>
<path d="M60.9321 59.1996L52.2972 51.9541" stroke="#DC8433" stroke-width="0.536764"/>
<circle cx="60.9321" cy="59.1996" r="1.61029" transform="rotate(130 60.9321 59.1996)" fill="#F4B442"/>
<path d="M57.5022 61.952L52.2973 51.9536" stroke="#DC8433" stroke-width="0.536764"/>
<circle cx="57.5024" cy="61.9518" r="1.61029" transform="rotate(152.5 57.5024 61.9518)" fill="#F4B442"/>
</svg>
