<svg width="135" height="178" viewBox="0 0 135 178" fill="none" xmlns="http://www.w3.org/2000/svg">
<g clip-path="url(#clip0_2253_204)">
<ellipse cx="15.2836" cy="20.3782" rx="15.2836" ry="20.3782" transform="matrix(-0.714598 -0.699536 -0.714598 0.699536 125 86.3828)" fill="#3C652F"/>
<path d="M110.52 78.5449L60 128" stroke="#74AA63" stroke-width="2"/>
<path d="M57.4581 21.6525C57.7168 18.5327 62.2832 18.5327 62.5419 21.6525C62.7538 24.2069 66.1784 24.8881 67.3516 22.6092C68.7846 19.8259 73.0034 21.5734 72.0485 24.5547C71.2667 26.9958 74.1699 28.9357 76.126 27.2792C78.5149 25.2561 81.7439 28.4851 79.7208 30.874C78.0643 32.8301 80.0042 35.7333 82.4453 34.9515C85.4266 33.9966 87.1741 38.2155 84.3908 39.6484C82.1119 40.8216 82.7931 44.2462 85.3475 44.4581C88.4673 44.7168 88.4673 49.2832 85.3475 49.5419C82.7931 49.7538 82.1119 53.1784 84.3908 54.3516C87.1741 55.7845 85.4266 60.0034 82.4453 59.0485C80.0042 58.2667 78.0643 61.1699 79.7208 63.126C81.7439 65.5149 78.5149 68.7439 76.126 66.7208C74.1699 65.0643 71.2667 67.0042 72.0485 69.4453C73.0034 72.4266 68.7845 74.1741 67.3516 71.3908C66.1784 69.1119 62.7538 69.7931 62.5419 72.3475C62.2832 75.4673 57.7168 75.4673 57.4581 72.3475C57.2462 69.7931 53.8216 69.1119 52.6484 71.3908C51.2155 74.1741 46.9966 72.4266 47.9515 69.4453C48.7333 67.0042 45.8301 65.0643 43.874 66.7208C41.4851 68.7439 38.2561 65.5149 40.2792 63.126C41.9357 61.1699 39.9958 58.2667 37.5547 59.0485C34.5734 60.0034 32.8259 55.7845 35.6092 54.3516C37.8881 53.1784 37.2069 49.7538 34.6525 49.5419C31.5327 49.2832 31.5327 44.7168 34.6525 44.4581C37.2069 44.2462 37.8881 40.8216 35.6092 39.6484C32.8259 38.2155 34.5734 33.9966 37.5547 34.9515C39.9958 35.7333 41.9357 32.8301 40.2792 30.874C38.2561 28.4851 41.4851 25.2561 43.874 27.2792C45.8301 28.9357 48.7333 26.9958 47.9515 24.5547C46.9966 21.5734 51.2155 19.8259 52.6484 22.6092C53.8216 24.8881 57.2462 24.2069 57.4581 21.6525Z" fill="#F4B442"/>
<path d="M89.6992 17.3015L60.0007 47" stroke="#DC8433" stroke-width="2"/>
<circle cx="89.6992" cy="17.3014" r="6" transform="rotate(45 89.6992 17.3014)" fill="#F4B442"/>
<path d="M98.8027 30.9272L59.9998 47" stroke="#DC8433" stroke-width="2"/>
<circle cx="98.8036" cy="30.9273" r="6" transform="rotate(67.5 98.8036 30.9273)" fill="#F4B442"/>
<path d="M102 47L60 47" stroke="#DC8433" stroke-width="2"/>
<circle cx="102" cy="47" r="6" transform="rotate(90 102 47)" fill="#F4B442"/>
<path d="M98.8027 63.0725L59.9998 46.9998" stroke="#DC8433" stroke-width="2"/>
<circle cx="98.8032" cy="63.0726" r="6" transform="rotate(112.5 98.8032 63.0726)" fill="#F4B442"/>
<path d="M89.6992 76.6985L60.0007 47" stroke="#DC8433" stroke-width="2"/>
<circle cx="89.6983" cy="76.6985" r="6" transform="rotate(135 89.6983 76.6985)" fill="#F4B442"/>
<path d="M76.0723 85.8032L59.9996 47.0003" stroke="#DC8433" stroke-width="2"/>
<circle cx="76.0729" cy="85.8031" r="6" transform="rotate(157.5 76.0729 85.8031)" fill="#F4B442"/>
<path d="M60 89L60 47" stroke="#DC8433" stroke-width="2"/>
<circle cx="60" cy="89" r="6" transform="rotate(180 60 89)" fill="#F4B442"/>
<path d="M43.9277 85.803L60.0004 47" stroke="#DC8433" stroke-width="2"/>
<circle cx="43.9286" cy="85.803" r="6" transform="rotate(-157.5 43.9286 85.803)" fill="#F4B442"/>
<path d="M30.3027 76.6985L60.0012 47" stroke="#DC8433" stroke-width="2"/>
<circle cx="30.3027" cy="76.6986" r="6" transform="rotate(-135 30.3027 76.6986)" fill="#F4B442"/>
<path d="M21.1992 63.0728L60.0022 47" stroke="#DC8433" stroke-width="2"/>
<circle cx="21.1979" cy="63.0727" r="6" transform="rotate(-112.5 21.1979 63.0727)" fill="#F4B442"/>
<path d="M18 47L60 47" stroke="#DC8433" stroke-width="2"/>
<circle cx="18" cy="47" r="6" transform="rotate(-90 18 47)" fill="#F4B442"/>
<path d="M21.1992 30.9275L60.0022 47.0002" stroke="#DC8433" stroke-width="2"/>
<circle cx="21.1988" cy="30.9274" r="6" transform="rotate(-67.5 21.1988 30.9274)" fill="#F4B442"/>
<path d="M30.3027 17.3015L60.0012 47" stroke="#DC8433" stroke-width="2"/>
<circle cx="30.3036" cy="17.3015" r="6" transform="rotate(-45 30.3036 17.3015)" fill="#F4B442"/>
<path d="M43.9297 8.19702L60.0024 47" stroke="#DC8433" stroke-width="2"/>
<circle cx="43.9296" cy="8.19713" r="6" transform="rotate(-22.5 43.9296 8.19713)" fill="#F4B442"/>
<path d="M60.002 5V47" stroke="#DC8433" stroke-width="2"/>
<circle cx="60.0023" cy="5" r="6" fill="#F4B442"/>
<path d="M76.0723 8.19702L59.9996 47" stroke="#DC8433" stroke-width="2"/>
<circle cx="76.0714" cy="8.19704" r="6" transform="rotate(22.5 76.0714 8.19704)" fill="#F4B442"/>
<path d="M60 65C60 65 60 116.06 60 159.029C60 178.413 45.5578 190 18.7871 190C-23.3064 190 -89 190 -89 190" stroke="#638A4E" stroke-width="2"/>
</g>
<defs>
<clipPath id="clip0_2253_204">
<rect width="135" height="178" fill="white"/>
</clipPath>
</defs>
</svg>
