<svg width="118" height="206" viewBox="0 0 118 206" fill="none" xmlns="http://www.w3.org/2000/svg">
<rect x="46.8201" y="94.2596" width="23.5999" height="111.257" fill="#93642D"/>
<rect x="46.8201" y="93.296" width="22.955" height="84.6465" fill="#714D22"/>
<path fill-rule="evenodd" clip-rule="evenodd" d="M26.9722 85.9407C26.9722 67.5967 41.843 52.726 60.1869 52.726C78.5309 52.726 93.4017 67.5967 93.4017 85.9407V88.3132C93.4017 89.5599 93.333 90.7905 93.1992 92.0015C107.023 96.0195 117.127 108.78 117.127 123.9V126.273C117.127 144.617 102.256 159.488 83.9118 159.488C73.9915 159.488 65.0869 155.138 59.0008 148.243C52.9146 155.138 44.0101 159.488 34.0897 159.488C15.7457 159.488 0.875 144.617 0.875 126.273V123.9C0.875 107.949 12.1201 94.6232 27.1155 91.419C27.0207 90.3965 26.9722 89.3605 26.9722 88.3132V85.9407Z" fill="#66A865"/>
<path fill-rule="evenodd" clip-rule="evenodd" d="M30.6103 29.3175C30.6103 13.4194 43.4983 0.531372 59.3965 0.531372C75.2946 0.531372 88.1826 13.4194 88.1826 29.3175V31.3736C88.1826 32.4541 88.123 33.5207 88.0071 34.5704C99.9877 38.0527 108.744 49.1118 108.744 62.216V64.2721C108.744 80.1702 95.8559 93.0582 79.9577 93.0582C71.3601 93.0582 63.6429 89.289 58.3682 83.313C53.0936 89.289 45.3764 93.0582 36.7788 93.0582C20.8806 93.0582 7.99268 80.1702 7.99268 64.2721V62.216C7.99268 48.3911 17.7384 36.8424 30.7346 34.0655C30.6524 33.1792 30.6103 32.2813 30.6103 31.3736V29.3175Z" fill="#83C082"/>
<path fill-rule="evenodd" clip-rule="evenodd" d="M1.82496 116.251C5.32512 130.844 18.4582 141.691 34.1246 141.691C44.045 141.691 52.9495 137.341 59.0357 130.446C65.1218 137.341 74.0264 141.691 83.9467 141.691C99.6131 141.691 112.746 130.844 116.246 116.251C116.845 118.745 117.161 121.349 117.161 124.026V126.399C117.161 144.743 102.291 159.614 83.9467 159.614C74.0264 159.614 65.1218 155.265 59.0357 148.369C52.9495 155.265 44.045 159.614 34.1246 159.614C15.7807 159.614 0.909912 144.743 0.909912 126.399V124.026C0.909912 121.349 1.22674 118.745 1.82496 116.251Z" fill="#458244"/>
</svg>
