<svg width="115" height="222" viewBox="0 0 115 222" fill="none" xmlns="http://www.w3.org/2000/svg">
<path d="M60.3799 112.022C60.3799 95.2553 46.7877 81.6631 30.0209 81.6631H24.1779C24.1779 98.4299 37.7701 112.022 54.5369 112.022H60.3799Z" fill="#74AA63"/>
<path d="M59.7336 111.48C48.0973 106.018 24.8246 92.95 24.8246 82.2052" stroke="#638A4E" stroke-width="2" stroke-linecap="round"/>
<path d="M65.2285 73.5312V99.6878C65.2285 107.965 60.2944 115.58 49.0448 115.58C34.9925 115.58 24.7691 115.58 21.414 115.58C9.5722 115.58 1.87505 118.726 1.87505 131.97C1.87505 148.525 1.87505 185.111 1.87505 221.531" stroke="#638A4E" stroke-width="2"/>
<path d="M66.0839 96.6674C72.5104 87.3328 85.9892 83.7692 96.1894 88.7078L97.875 89.5239C91.4484 98.8585 77.9697 102.422 67.7694 97.4835L66.0839 96.6674Z" fill="#74AA63"/>
<path d="M66.6515 96.5398C75.2234 96.6356 93.1889 95.6334 97.3073 89.6514" stroke="#638A4E" stroke-width="2" stroke-linecap="round"/>
<path fill-rule="evenodd" clip-rule="evenodd" d="M85.6515 51.1587C88.9944 52.1791 92.0453 54.2553 94.258 57.3009C99.6691 64.7486 98.0181 75.1727 90.5704 80.5837C83.1227 85.9948 72.6986 84.3438 67.2875 76.8961C65.0748 73.8506 64.043 70.3073 64.1056 66.8127L64.0437 66.8577L64.1294 66.1708C64.1721 65.4132 64.2662 64.6596 64.4108 63.9155L66.4697 47.4113L82.2619 50.4962C83.4092 50.5996 84.5444 50.8211 85.6477 51.1576L85.6519 51.1584L85.6515 51.1587Z" fill="#FAE0BE"/>
<path fill-rule="evenodd" clip-rule="evenodd" d="M68.7154 66.1175C68.778 69.6121 67.7462 73.1554 65.5335 76.2009C60.1224 83.6486 49.6983 85.2996 42.2506 79.8885C34.8029 74.4775 33.1519 64.0534 38.5629 56.6057C40.7756 53.5601 43.8266 51.4839 47.1696 50.4635L47.1077 50.4185L47.7878 50.2877C48.5212 50.0943 49.2668 49.9509 50.0189 49.8585L66.3519 46.7165L68.2981 62.6893C68.5543 63.8123 68.6944 64.9602 68.7153 66.1135L68.7158 66.1178L68.7154 66.1175Z" fill="#FAE0BE"/>
<path fill-rule="evenodd" clip-rule="evenodd" d="M49.2558 54.6321C45.9515 55.7715 42.2628 55.8851 38.6826 54.7218C29.9273 51.8771 25.1359 42.4734 27.9806 33.7181C30.8254 24.9628 40.2291 20.1713 48.9844 23.0161C52.5647 24.1794 55.4821 26.4395 57.4855 29.3035L57.5092 29.2307L57.8436 29.8369C58.2543 30.4747 58.6212 31.1397 58.9416 31.8267L66.9768 46.3891L52.3869 53.1761C51.3982 53.7666 50.35 54.2544 49.2599 54.6307L49.2556 54.6327L49.2558 54.6321Z" fill="#FAE0BE"/>
<path fill-rule="evenodd" clip-rule="evenodd" d="M54.1659 32.5751C52.0611 29.7846 50.8132 26.3116 50.8132 22.5471C50.8132 13.3412 58.2761 5.87842 67.4819 5.87842C76.6878 5.87842 84.1506 13.3412 84.1506 22.5471C84.1506 26.3116 82.9027 29.7846 80.798 32.5751H80.8745L80.4015 33.0803C79.9216 33.6681 79.4025 34.2226 78.8481 34.7397L67.4815 46.8815L56.5184 35.1032C55.6512 34.3453 54.8631 33.499 54.1683 32.5783L54.1653 32.5751H54.1659Z" fill="#FAE0BE"/>
<path fill-rule="evenodd" clip-rule="evenodd" d="M76.6585 30.4284C78.6619 27.5644 81.5793 25.3043 85.1596 24.141C93.9149 21.2963 103.319 26.0877 106.163 34.843C109.008 43.5983 104.217 53.002 95.4614 55.8468C91.8812 57.0101 88.1925 56.8964 84.8883 55.757L84.9119 55.8297L84.2853 55.5361C83.5779 55.2614 82.8901 54.9389 82.2269 54.5714L67.167 47.5133L74.9811 33.447C75.4339 32.388 75.9952 31.377 76.6561 30.4318L76.6583 30.4278L76.6585 30.4284Z" fill="#FAE0BE"/>
<path d="M65.6751 36.1962C65.7867 34.85 67.7571 34.85 67.8688 36.1962C67.9602 37.2984 69.4379 37.5924 69.9442 36.609C70.5625 35.408 72.3829 36.162 71.9709 37.4485C71.6335 38.5018 72.8863 39.3389 73.7303 38.6241C74.7612 37.7511 76.1545 39.1444 75.2815 40.1753C74.5667 41.0193 75.4038 42.2721 76.4571 41.9347C77.7436 41.5227 78.4976 43.3432 77.2966 43.9615C76.3133 44.4677 76.6072 45.9455 77.7095 46.0369C79.0557 46.1485 79.0557 48.1189 77.7095 48.2306C76.6072 48.322 76.3133 49.7997 77.2966 50.306C78.4976 50.9243 77.7436 52.7447 76.4571 52.3327C75.4038 51.9953 74.5667 53.2481 75.2815 54.0921C76.1545 55.123 74.7612 56.5163 73.7303 55.6433C72.8863 54.9286 71.6335 55.7656 71.9709 56.819C72.3829 58.1054 70.5625 58.8595 69.9442 57.6584C69.4379 56.6751 67.9602 56.969 67.8688 58.0713C67.7571 59.4175 65.7867 59.4175 65.6751 58.0713C65.5836 56.969 64.1059 56.6751 63.5996 57.6584C62.9813 58.8595 61.1609 58.1054 61.5729 56.819C61.9103 55.7656 60.6575 54.9286 59.8135 55.6433C58.7826 56.5163 57.3893 55.123 58.2623 54.0921C58.9771 53.2481 58.14 51.9953 57.0867 52.3327C55.8002 52.7447 55.0462 50.9243 56.2472 50.306C57.2305 49.7997 56.9366 48.322 55.8344 48.2306C54.4881 48.1189 54.4881 46.1485 55.8344 46.0369C56.9366 45.9455 57.2305 44.4677 56.2472 43.9615C55.0462 43.3432 55.8002 41.5227 57.0867 41.9347C58.14 42.2721 58.9771 41.0193 58.2623 40.1753C57.3893 39.1444 58.7826 37.7511 59.8135 38.6241C60.6575 39.3389 61.9103 38.5018 61.5729 37.4485C61.1609 36.162 62.9813 35.408 63.5996 36.609C64.1059 37.5924 65.5836 37.2984 65.6751 36.1962Z" fill="#F4B442"/>
<path d="M79.5872 34.3186L66.7721 47.1336" stroke="#DC8433" stroke-width="0.863009"/>
<circle cx="79.5872" cy="34.3187" r="2.58903" transform="rotate(45 79.5872 34.3187)" fill="#F4B442"/>
<path d="M83.5154 40.1982L66.7717 47.1337" stroke="#DC8433" stroke-width="0.863009"/>
<circle cx="83.5158" cy="40.1983" r="2.58903" transform="rotate(67.5 83.5158 40.1983)" fill="#F4B442"/>
<path d="M84.895 47.1337L66.7718 47.1337" stroke="#DC8433" stroke-width="0.863009"/>
<circle cx="84.8951" cy="47.1337" r="2.58903" transform="rotate(90 84.8951 47.1337)" fill="#F4B442"/>
<path d="M83.5154 54.0691L66.7717 47.1337" stroke="#DC8433" stroke-width="0.863009"/>
<circle cx="83.5157" cy="54.0691" r="2.58903" transform="rotate(112.5 83.5157 54.0691)" fill="#F4B442"/>
<path d="M79.5872 59.9487L66.7721 47.1337" stroke="#DC8433" stroke-width="0.863009"/>
<circle cx="79.5869" cy="59.9487" r="2.58903" transform="rotate(135 79.5869 59.9487)" fill="#F4B442"/>
<path d="M73.7073 63.8773L66.7718 47.1337" stroke="#DC8433" stroke-width="0.863009"/>
<circle cx="73.7074" cy="63.8774" r="2.58903" transform="rotate(157.5 73.7074 63.8774)" fill="#F4B442"/>
<path d="M66.7717 65.257L66.7717 47.1338" stroke="#DC8433" stroke-width="0.863009"/>
<circle cx="66.7718" cy="65.2569" r="2.58903" transform="rotate(180 66.7718 65.2569)" fill="#F4B442"/>
<path d="M59.8367 63.8773L66.7721 47.1337" stroke="#DC8433" stroke-width="0.863009"/>
<circle cx="59.8371" cy="63.8774" r="2.58903" transform="rotate(-157.5 59.8371 63.8774)" fill="#F4B442"/>
<path d="M53.9574 59.9489L66.7724 47.1338" stroke="#DC8433" stroke-width="0.863009"/>
<circle cx="53.9574" cy="59.9488" r="2.58903" transform="rotate(-135 53.9574 59.9488)" fill="#F4B442"/>
<path d="M50.0292 54.0692L66.7728 47.1338" stroke="#DC8433" stroke-width="0.863009"/>
<circle cx="50.0286" cy="54.0692" r="2.58903" transform="rotate(-112.5 50.0286 54.0692)" fill="#F4B442"/>
<path d="M48.6487 47.1337L66.7719 47.1337" stroke="#DC8433" stroke-width="0.863009"/>
<circle cx="48.6487" cy="47.1338" r="2.58903" transform="rotate(-90 48.6487 47.1338)" fill="#F4B442"/>
<path d="M50.0292 40.1982L66.7728 47.1337" stroke="#DC8433" stroke-width="0.863009"/>
<circle cx="50.029" cy="40.1983" r="2.58903" transform="rotate(-67.5 50.029 40.1983)" fill="#F4B442"/>
<path d="M53.9574 34.3187L66.7724 47.1338" stroke="#DC8433" stroke-width="0.863009"/>
<circle cx="53.9578" cy="34.3187" r="2.58903" transform="rotate(-45 53.9578 34.3187)" fill="#F4B442"/>
<path d="M59.8374 30.3901L66.7728 47.1338" stroke="#DC8433" stroke-width="0.863009"/>
<circle cx="59.8374" cy="30.3901" r="2.58903" transform="rotate(-22.5 59.8374 30.3901)" fill="#F4B442"/>
<path d="M66.7729 29.0105V47.1337" stroke="#DC8433" stroke-width="0.863009"/>
<circle cx="66.7731" cy="29.0105" r="2.58903" fill="#F4B442"/>
<path d="M73.7073 30.39L66.7718 47.1337" stroke="#DC8433" stroke-width="0.863009"/>
<circle cx="73.7068" cy="30.39" r="2.58903" transform="rotate(22.5 73.7068 30.39)" fill="#F4B442"/>
</svg>
